<mxfile host="app.diagrams.net" modified="2024-05-16T23:56:33.855Z" agent="Mozilla/5.0 (Windows NT 10.0; Win64; x64) AppleWebKit/537.36 (KHTML, like Gecko) Chrome/124.0.0.0 Safari/537.36" etag="Qy7rvT0tZwUSmvhSrF9y" version="24.4.3" type="github">
  <diagram id="R2lEEEUBdFMjLlhIrx00" name="Page-1">
    <mxGraphModel dx="880" dy="426" grid="0" gridSize="10" guides="1" tooltips="1" connect="1" arrows="1" fold="1" page="1" pageScale="1" pageWidth="850" pageHeight="1100" math="0" shadow="0" extFonts="Permanent Marker^https://fonts.googleapis.com/css?family=Permanent+Marker">
      <root>
        <mxCell id="0" />
        <mxCell id="1" parent="0" />
        <mxCell id="60W0y-cWjlyAPktGm2Se-42" style="edgeStyle=orthogonalEdgeStyle;rounded=0;orthogonalLoop=1;jettySize=auto;html=1;entryX=0;entryY=0.5;entryDx=0;entryDy=0;exitX=0.75;exitY=0;exitDx=0;exitDy=0;endArrow=none;endFill=0;" edge="1" parent="1" source="60W0y-cWjlyAPktGm2Se-2" target="60W0y-cWjlyAPktGm2Se-41">
          <mxGeometry relative="1" as="geometry" />
        </mxCell>
        <mxCell id="60W0y-cWjlyAPktGm2Se-43" style="edgeStyle=orthogonalEdgeStyle;rounded=0;orthogonalLoop=1;jettySize=auto;html=1;exitX=1;exitY=0.75;exitDx=0;exitDy=0;endArrow=none;endFill=0;" edge="1" parent="1" source="60W0y-cWjlyAPktGm2Se-2" target="60W0y-cWjlyAPktGm2Se-40">
          <mxGeometry relative="1" as="geometry">
            <Array as="points">
              <mxPoint x="484" y="90" />
              <mxPoint x="500" y="90" />
              <mxPoint x="500" y="110" />
            </Array>
          </mxGeometry>
        </mxCell>
        <mxCell id="60W0y-cWjlyAPktGm2Se-2" value="Perfil" style="rounded=1;whiteSpace=wrap;html=1;" vertex="1" parent="1">
          <mxGeometry x="367" y="60" width="116.8" height="60" as="geometry" />
        </mxCell>
        <mxCell id="60W0y-cWjlyAPktGm2Se-25" style="edgeStyle=orthogonalEdgeStyle;rounded=0;orthogonalLoop=1;jettySize=auto;html=1;entryX=1;entryY=0.5;entryDx=0;entryDy=0;endArrow=none;endFill=0;" edge="1" parent="1" source="60W0y-cWjlyAPktGm2Se-3" target="60W0y-cWjlyAPktGm2Se-15">
          <mxGeometry relative="1" as="geometry" />
        </mxCell>
        <mxCell id="60W0y-cWjlyAPktGm2Se-27" style="edgeStyle=orthogonalEdgeStyle;rounded=0;orthogonalLoop=1;jettySize=auto;html=1;endArrow=none;endFill=0;" edge="1" parent="1" source="60W0y-cWjlyAPktGm2Se-3" target="60W0y-cWjlyAPktGm2Se-18">
          <mxGeometry relative="1" as="geometry" />
        </mxCell>
        <mxCell id="60W0y-cWjlyAPktGm2Se-3" value="Usuário" style="rounded=1;whiteSpace=wrap;html=1;" vertex="1" parent="1">
          <mxGeometry x="200" y="180" width="120" height="60" as="geometry" />
        </mxCell>
        <mxCell id="60W0y-cWjlyAPktGm2Se-11" style="edgeStyle=orthogonalEdgeStyle;rounded=0;orthogonalLoop=1;jettySize=auto;html=1;endArrow=none;endFill=0;entryX=0;entryY=0.5;entryDx=0;entryDy=0;" edge="1" parent="1" source="60W0y-cWjlyAPktGm2Se-4" target="60W0y-cWjlyAPktGm2Se-7">
          <mxGeometry relative="1" as="geometry">
            <mxPoint x="513.2" y="320" as="targetPoint" />
          </mxGeometry>
        </mxCell>
        <mxCell id="60W0y-cWjlyAPktGm2Se-49" value="1" style="edgeLabel;html=1;align=center;verticalAlign=middle;resizable=0;points=[];" vertex="1" connectable="0" parent="60W0y-cWjlyAPktGm2Se-11">
          <mxGeometry x="-0.3379" y="-1" relative="1" as="geometry">
            <mxPoint as="offset" />
          </mxGeometry>
        </mxCell>
        <mxCell id="60W0y-cWjlyAPktGm2Se-36" style="edgeStyle=orthogonalEdgeStyle;rounded=0;orthogonalLoop=1;jettySize=auto;html=1;endArrow=none;endFill=0;" edge="1" parent="1" source="60W0y-cWjlyAPktGm2Se-4" target="60W0y-cWjlyAPktGm2Se-29">
          <mxGeometry relative="1" as="geometry" />
        </mxCell>
        <mxCell id="60W0y-cWjlyAPktGm2Se-37" style="edgeStyle=orthogonalEdgeStyle;rounded=0;orthogonalLoop=1;jettySize=auto;html=1;entryX=0.5;entryY=0;entryDx=0;entryDy=0;endArrow=none;endFill=0;" edge="1" parent="1" source="60W0y-cWjlyAPktGm2Se-4" target="60W0y-cWjlyAPktGm2Se-30">
          <mxGeometry relative="1" as="geometry" />
        </mxCell>
        <mxCell id="60W0y-cWjlyAPktGm2Se-39" style="edgeStyle=orthogonalEdgeStyle;rounded=0;orthogonalLoop=1;jettySize=auto;html=1;entryX=0.5;entryY=0;entryDx=0;entryDy=0;endArrow=none;endFill=0;" edge="1" parent="1" source="60W0y-cWjlyAPktGm2Se-4" target="60W0y-cWjlyAPktGm2Se-31">
          <mxGeometry relative="1" as="geometry" />
        </mxCell>
        <mxCell id="60W0y-cWjlyAPktGm2Se-4" value="Módulos" style="rounded=1;whiteSpace=wrap;html=1;" vertex="1" parent="1">
          <mxGeometry x="365" y="290" width="120" height="60" as="geometry" />
        </mxCell>
        <mxCell id="60W0y-cWjlyAPktGm2Se-34" style="edgeStyle=orthogonalEdgeStyle;rounded=0;orthogonalLoop=1;jettySize=auto;html=1;entryX=0.5;entryY=1;entryDx=0;entryDy=0;endArrow=none;endFill=0;" edge="1" parent="1" source="60W0y-cWjlyAPktGm2Se-5" target="60W0y-cWjlyAPktGm2Se-32">
          <mxGeometry relative="1" as="geometry" />
        </mxCell>
        <mxCell id="60W0y-cWjlyAPktGm2Se-35" style="edgeStyle=orthogonalEdgeStyle;rounded=0;orthogonalLoop=1;jettySize=auto;html=1;entryX=0.5;entryY=1;entryDx=0;entryDy=0;endArrow=none;endFill=0;" edge="1" parent="1" source="60W0y-cWjlyAPktGm2Se-5" target="60W0y-cWjlyAPktGm2Se-33">
          <mxGeometry relative="1" as="geometry" />
        </mxCell>
        <mxCell id="60W0y-cWjlyAPktGm2Se-5" value="Aulas" style="rounded=1;whiteSpace=wrap;html=1;" vertex="1" parent="1">
          <mxGeometry x="650" y="290" width="120" height="60" as="geometry" />
        </mxCell>
        <mxCell id="60W0y-cWjlyAPktGm2Se-9" style="edgeStyle=orthogonalEdgeStyle;rounded=0;orthogonalLoop=1;jettySize=auto;html=1;endArrow=none;endFill=0;" edge="1" parent="1" source="60W0y-cWjlyAPktGm2Se-6" target="60W0y-cWjlyAPktGm2Se-2">
          <mxGeometry relative="1" as="geometry" />
        </mxCell>
        <mxCell id="60W0y-cWjlyAPktGm2Se-48" value="1" style="edgeLabel;html=1;align=center;verticalAlign=middle;resizable=0;points=[];" vertex="1" connectable="0" parent="60W0y-cWjlyAPktGm2Se-9">
          <mxGeometry x="0.6252" y="-2" relative="1" as="geometry">
            <mxPoint as="offset" />
          </mxGeometry>
        </mxCell>
        <mxCell id="60W0y-cWjlyAPktGm2Se-10" style="edgeStyle=orthogonalEdgeStyle;rounded=0;orthogonalLoop=1;jettySize=auto;html=1;entryX=0.5;entryY=0;entryDx=0;entryDy=0;endArrow=none;endFill=0;" edge="1" parent="1" source="60W0y-cWjlyAPktGm2Se-6" target="60W0y-cWjlyAPktGm2Se-4">
          <mxGeometry relative="1" as="geometry" />
        </mxCell>
        <mxCell id="60W0y-cWjlyAPktGm2Se-47" value="N" style="edgeLabel;html=1;align=center;verticalAlign=middle;resizable=0;points=[];" vertex="1" connectable="0" parent="60W0y-cWjlyAPktGm2Se-10">
          <mxGeometry x="0.1793" y="-2" relative="1" as="geometry">
            <mxPoint as="offset" />
          </mxGeometry>
        </mxCell>
        <mxCell id="60W0y-cWjlyAPktGm2Se-45" value="" style="edgeStyle=orthogonalEdgeStyle;rounded=0;orthogonalLoop=1;jettySize=auto;html=1;endArrow=none;endFill=0;" edge="1" parent="1" source="60W0y-cWjlyAPktGm2Se-6" target="60W0y-cWjlyAPktGm2Se-3">
          <mxGeometry relative="1" as="geometry" />
        </mxCell>
        <mxCell id="60W0y-cWjlyAPktGm2Se-46" value="1" style="edgeLabel;html=1;align=center;verticalAlign=middle;resizable=0;points=[];" vertex="1" connectable="0" parent="60W0y-cWjlyAPktGm2Se-45">
          <mxGeometry x="0.4727" y="-1" relative="1" as="geometry">
            <mxPoint as="offset" />
          </mxGeometry>
        </mxCell>
        <mxCell id="60W0y-cWjlyAPktGm2Se-6" value="Acessa" style="rhombus;whiteSpace=wrap;html=1;" vertex="1" parent="1">
          <mxGeometry x="385" y="170" width="80" height="80" as="geometry" />
        </mxCell>
        <mxCell id="60W0y-cWjlyAPktGm2Se-13" style="edgeStyle=orthogonalEdgeStyle;rounded=0;orthogonalLoop=1;jettySize=auto;html=1;entryX=0;entryY=0.5;entryDx=0;entryDy=0;endArrow=none;endFill=0;exitX=1;exitY=0.5;exitDx=0;exitDy=0;" edge="1" parent="1" source="60W0y-cWjlyAPktGm2Se-7" target="60W0y-cWjlyAPktGm2Se-5">
          <mxGeometry relative="1" as="geometry">
            <mxPoint x="593.2" y="320" as="sourcePoint" />
          </mxGeometry>
        </mxCell>
        <mxCell id="60W0y-cWjlyAPktGm2Se-50" value="N" style="edgeLabel;html=1;align=center;verticalAlign=middle;resizable=0;points=[];" vertex="1" connectable="0" parent="60W0y-cWjlyAPktGm2Se-13">
          <mxGeometry x="0.1155" y="2" relative="1" as="geometry">
            <mxPoint as="offset" />
          </mxGeometry>
        </mxCell>
        <mxCell id="60W0y-cWjlyAPktGm2Se-7" value="Contém" style="rhombus;whiteSpace=wrap;html=1;" vertex="1" parent="1">
          <mxGeometry x="530" y="280" width="80" height="80" as="geometry" />
        </mxCell>
        <mxCell id="60W0y-cWjlyAPktGm2Se-14" value="Genero" style="ellipse;whiteSpace=wrap;html=1;" vertex="1" parent="1">
          <mxGeometry x="60" y="60" width="90" height="60" as="geometry" />
        </mxCell>
        <mxCell id="60W0y-cWjlyAPktGm2Se-15" value="Nome" style="ellipse;whiteSpace=wrap;html=1;" vertex="1" parent="1">
          <mxGeometry x="10" y="130" width="90" height="60" as="geometry" />
        </mxCell>
        <mxCell id="60W0y-cWjlyAPktGm2Se-16" value="ID" style="ellipse;whiteSpace=wrap;html=1;" vertex="1" parent="1">
          <mxGeometry x="180" y="60" width="90" height="60" as="geometry" />
        </mxCell>
        <mxCell id="60W0y-cWjlyAPktGm2Se-17" value="Email" style="ellipse;whiteSpace=wrap;html=1;" vertex="1" parent="1">
          <mxGeometry x="30" y="210" width="90" height="60" as="geometry" />
        </mxCell>
        <mxCell id="60W0y-cWjlyAPktGm2Se-18" value="Data de nascimento" style="ellipse;whiteSpace=wrap;html=1;" vertex="1" parent="1">
          <mxGeometry x="110" y="280" width="90" height="60" as="geometry" />
        </mxCell>
        <mxCell id="60W0y-cWjlyAPktGm2Se-19" style="edgeStyle=orthogonalEdgeStyle;rounded=0;orthogonalLoop=1;jettySize=auto;html=1;entryX=0.422;entryY=1.033;entryDx=0;entryDy=0;entryPerimeter=0;endArrow=none;endFill=0;" edge="1" parent="1" source="60W0y-cWjlyAPktGm2Se-3" target="60W0y-cWjlyAPktGm2Se-16">
          <mxGeometry relative="1" as="geometry" />
        </mxCell>
        <mxCell id="60W0y-cWjlyAPktGm2Se-24" style="edgeStyle=orthogonalEdgeStyle;rounded=0;orthogonalLoop=1;jettySize=auto;html=1;entryX=1;entryY=1;entryDx=0;entryDy=0;endArrow=none;endFill=0;" edge="1" parent="1" source="60W0y-cWjlyAPktGm2Se-3" target="60W0y-cWjlyAPktGm2Se-14">
          <mxGeometry relative="1" as="geometry">
            <Array as="points">
              <mxPoint x="148" y="210" />
              <mxPoint x="148" y="111" />
            </Array>
          </mxGeometry>
        </mxCell>
        <mxCell id="60W0y-cWjlyAPktGm2Se-26" style="edgeStyle=orthogonalEdgeStyle;rounded=0;orthogonalLoop=1;jettySize=auto;html=1;entryX=1.022;entryY=0.383;entryDx=0;entryDy=0;entryPerimeter=0;endArrow=none;endFill=0;" edge="1" parent="1" source="60W0y-cWjlyAPktGm2Se-3" target="60W0y-cWjlyAPktGm2Se-17">
          <mxGeometry relative="1" as="geometry">
            <Array as="points">
              <mxPoint x="150" y="210" />
              <mxPoint x="150" y="233" />
            </Array>
          </mxGeometry>
        </mxCell>
        <mxCell id="60W0y-cWjlyAPktGm2Se-29" value="Professor" style="ellipse;whiteSpace=wrap;html=1;" vertex="1" parent="1">
          <mxGeometry x="340" y="390" width="90" height="60" as="geometry" />
        </mxCell>
        <mxCell id="60W0y-cWjlyAPktGm2Se-30" value="Sigla" style="ellipse;whiteSpace=wrap;html=1;" vertex="1" parent="1">
          <mxGeometry x="240" y="380" width="90" height="60" as="geometry" />
        </mxCell>
        <mxCell id="60W0y-cWjlyAPktGm2Se-31" value="Instrumento" style="ellipse;whiteSpace=wrap;html=1;" vertex="1" parent="1">
          <mxGeometry x="453.2" y="390" width="90" height="60" as="geometry" />
        </mxCell>
        <mxCell id="60W0y-cWjlyAPktGm2Se-32" value="Módulo" style="ellipse;whiteSpace=wrap;html=1;" vertex="1" parent="1">
          <mxGeometry x="610" y="180" width="90" height="60" as="geometry" />
        </mxCell>
        <mxCell id="60W0y-cWjlyAPktGm2Se-33" value="Tempo da aula" style="ellipse;whiteSpace=wrap;html=1;" vertex="1" parent="1">
          <mxGeometry x="720" y="180" width="90" height="60" as="geometry" />
        </mxCell>
        <mxCell id="60W0y-cWjlyAPktGm2Se-40" value="Descrição" style="ellipse;whiteSpace=wrap;html=1;" vertex="1" parent="1">
          <mxGeometry x="530" y="80" width="90" height="60" as="geometry" />
        </mxCell>
        <mxCell id="60W0y-cWjlyAPktGm2Se-41" value="Instrumento" style="ellipse;whiteSpace=wrap;html=1;dashed=1;" vertex="1" parent="1">
          <mxGeometry x="500" y="10" width="90" height="60" as="geometry" />
        </mxCell>
      </root>
    </mxGraphModel>
  </diagram>
</mxfile>
